<svg xmlns="http://www.w3.org/2000/svg" xmlns:xlink="http://www.w3.org/1999/xlink" width="1055" height="606" viewBox="0 0 1055 606">
  
<defs>
    <style>
      .cls-1, .cls-2 {
        fill-rule: evenodd;
        opacity: 0.28;
      }

      .cls-1 {
        fill: url(#linear-gradient);
      }

      .cls-2 {
        fill: url(#linear-gradient-2);
      }
    </style>
    <linearGradient id="linear-gradient" x1="11" y1="300.5" x2="2447" y2="300.5" gradientUnits="userSpaceOnUse">
      <stop offset="0" stop-color="#a044ff"/>
      <stop offset="1" stop-color="#6a3093"/>
    </linearGradient>
    <linearGradient id="linear-gradient-2" x1="167" x2="2291.56" xlink:href="#linear-gradient"/>
  </defs>
  <path id="Фигура_1_копия_2" data-name="Фигура 1 копия 2" class="cls-1" d="M11,512.749V216.3S168.244-5,606.08-5c436.85,0,690.08,254.7,1020.46,254.7,286.65,0,459.79-166.181,650.12-215.729s169.69,36.187,169.69,36.187L2415.4,606Z" transform="translate(-11)"/>
  <path id="Фигура_1_копия_2-2" data-name="Фигура 1 копия 2" class="cls-2" d="M167,485.743V227.009S304.141,33.87,686,33.87c381,0,601.85,222.292,890,222.292,250,0,401-145.036,567-188.28s148,31.583,148,31.583l-27,467.664Z" transform="translate(-11)"/>
</svg>
