<?xml version="1.0" encoding="utf-8"?>
<!-- Generator: Adobe Illustrator 21.1.0, SVG Export Plug-In . SVG Version: 6.00 Build 0)  -->
<svg version="1.1"
	 id="Слой_1" xmlns:cc="http://creativecommons.org/ns#" xmlns:dc="http://purl.org/dc/elements/1.1/" xmlns:inkscape="http://www.inkscape.org/namespaces/inkscape" xmlns:rdf="http://www.w3.org/1999/02/22-rdf-syntax-ns#" xmlns:sodipodi="http://sodipodi.sourceforge.net/DTD/sodipodi-0.dtd" xmlns:svg="http://www.w3.org/2000/svg"
	 xmlns="http://www.w3.org/2000/svg" xmlns:xlink="http://www.w3.org/1999/xlink" x="0px" y="0px" viewBox="0 0 100 125"
	 style="enable-background:new 0 0 100 125;" xml:space="preserve">
<style type="text/css">
	.st0{fill:#00A1E3;}
</style>
<path class="st0" d="M33.7,76.2c16.4,16.4,29,20.5,43.8,5.7c2.3-2.4,4.5-5.4,1.4-8.5l-12-9.2c-3.8-2-5.3-0.6-7.1,1.4
	c-6.6,7.3-13.6,4.9-18.4,0l-7.1-7.1c-4.9-4.7-7.3-11.8,0-18.4c2-1.8,3.5-3.3,1.4-7.1l-9.2-12c-3.1-3.1-6.1-0.9-8.5,1.4
	C3.3,37.3,7.4,49.9,23.8,66.3L33.7,76.2z"/>
</svg>
