<svg id="_" data-name="&gt;" xmlns="http://www.w3.org/2000/svg" width="91.03" height="14" viewBox="0 0 91.03 14">
  <defs>
    <style>
      .cls-1, .cls-2 {
        fill: #883eca;
      }

      .cls-1 {
        fill-rule: evenodd;
      }
    </style>
  </defs>
  <path id="Прямоугольник_4_копия" data-name="Прямоугольник 4 копия" class="cls-1" d="M1183.44,2404.06l-5.62,5.66a0.984,0.984,0,0,1-1.4,0,1.008,1.008,0,0,1,0-1.42l5.62-5.65a0.984,0.984,0,0,1,1.4,0A1,1,0,0,1,1183.44,2404.06Zm0.29-.71a0.984,0.984,0,0,1-1.4,0l-5.62-5.65a1.008,1.008,0,0,1,0-1.42,0.984,0.984,0,0,1,1.4,0l5.62,5.66A1,1,0,0,1,1183.73,2403.35Z" transform="translate(-1093 -2396)"/>
  <rect id="Прямоугольник_скругл._углы_4" data-name="Прямоугольник, скругл. углы 4" class="cls-2" y="5.5" width="80" height="2" rx="1" ry="1"/>
</svg>
