<svg xmlns="http://www.w3.org/2000/svg"
	 viewBox="0 0 100 125">

<path fill="#883eca" d="M5.1,15.5c-2,2.1-3.1,4.8-3.1,7.7v53.5c0,2.9,1.1,5.6,3.1,7.7l0,0c2.1,2.2,5,3.4,8,3.4h73.8
	c6.1,0,11.1-5,11.1-11.1c0,0,0,0,0,0V23.2c0-6.1-5-11.1-11.1-11.1H13.1C10.1,12.1,7.2,13.4,5.1,15.5z M16.9,27.4
	c1.3-1.4,3.4-1.5,4.9-0.3L50,51.9l0,0l28.2-24.7c1.5-1.3,3.7-1.1,4.9,0.3c1.2,1.4,1.1,3.4-0.1,4.7L66.3,49.2l16.8,18.8
	c1.3,1.5,1.1,3.7-0.3,4.9c-1.4,1.2-3.4,1.1-4.7-0.1L60.4,55.3l-4.8,4.9c-1.5,1.4-3.5,2.2-5.6,2.2l0,0c-2.1,0-4.1-0.8-5.6-2.2
	l-4.8-4.9L21.9,72.7c-1.4,1.3-3.6,1.3-4.9,0c-1.3-1.3-1.3-3.4-0.1-4.7l16.8-18.7L17,32.2C15.7,30.9,15.7,28.8,16.9,27.4z"/>
</svg>
